<svg width="24" height="24" viewBox="0 0 24 24" fill="none" xmlns="http://www.w3.org/2000/svg">
<path fill-rule="evenodd" clip-rule="evenodd" d="M10.5021 1.40273C10.9577 1.14023 11.4742 1.00204 12 1.00204C12.5258 1.00204 13.0424 1.14024 13.4979 1.40276C13.4986 1.40317 13.4993 1.40357 13.5 1.40397L20.5 5.40396C20.9556 5.66701 21.334 6.04524 21.5973 6.50071C21.8606 6.95618 21.9995 7.47288 22 7.99897V9.99999C22 10.5523 21.5523 11 21 11C20.4477 11 20 10.5523 20 9.99999V8.00102C19.9998 7.82566 19.9535 7.65342 19.8658 7.5016C19.7783 7.35031 19.6527 7.22458 19.5016 7.13694C19.5011 7.13663 19.5005 7.13632 19.5 7.13602L12.5 3.13603C12.348 3.04826 12.1755 3.00204 12 3.00204C11.8245 3.00204 11.652 3.04825 11.5 3.13602L11.4961 3.13825L4.5 7.13602C4.49947 7.13632 4.49895 7.13663 4.49842 7.13693C4.34726 7.22457 4.22169 7.3503 4.13423 7.5016C4.04654 7.6533 4.00025 7.82537 4 8.00059V15.9994C4.00025 16.1746 4.04654 16.3467 4.13423 16.4984C4.22169 16.6497 4.34726 16.7754 4.49842 16.8631C4.49895 16.8634 4.49947 16.8637 4.5 16.864L11.5 20.864C11.652 20.9517 11.8245 20.9979 12 20.9979C12.1755 20.9979 12.348 20.9517 12.5 20.864L12.5048 20.8612L14.5048 19.7212C14.9846 19.4477 15.5953 19.615 15.8688 20.0948C16.1423 20.5746 15.975 21.1853 15.4952 21.4588L13.5 22.596C13.4991 22.5965 13.4982 22.5971 13.4973 22.5976C13.0419 22.8599 12.5256 22.9979 12 22.9979C11.4741 22.9979 10.9575 22.8597 10.5019 22.5971C10.5012 22.5967 10.5006 22.5964 10.5 22.596L3.50386 18.5982L3.5 18.596C3.04439 18.333 2.66597 17.9547 2.40269 17.4993C2.13941 17.0438 2.00054 16.5271 2 16.001V7.99897C2.00054 7.47288 2.13941 6.95618 2.40269 6.50071C2.66597 6.04524 3.04439 5.66701 3.5 5.40397L3.50386 5.40174L10.5021 1.40273Z" fill="black"/>
<path fill-rule="evenodd" clip-rule="evenodd" d="M6.68364 3.74053C6.95949 3.26207 7.57098 3.09782 8.04944 3.37367L16.9994 8.53367C17.4779 8.80952 17.6422 9.42101 17.3663 9.89948C17.0905 10.3779 16.479 10.5422 16.0005 10.2663L7.0505 5.10634C6.57204 4.83049 6.40779 4.219 6.68364 3.74053Z" fill="black"/>
<path fill-rule="evenodd" clip-rule="evenodd" d="M2.4227 6.50213C2.69766 6.02316 3.30884 5.85777 3.78782 6.13273L12 10.8469L20.2121 6.13273C20.6911 5.85777 21.3023 6.02316 21.5772 6.50213C21.8522 6.98111 21.6868 7.59229 21.2078 7.86725L13 12.579V22C13 22.5523 12.5522 23 12 23C11.4477 23 11 22.5523 11 22V12.579L2.79211 7.86725C2.31314 7.59229 2.14775 6.98111 2.4227 6.50213Z" fill="black"/>
<path fill-rule="evenodd" clip-rule="evenodd" d="M16.2929 12.2929C16.6834 11.9024 17.3166 11.9024 17.7071 12.2929L19.5 14.0858L21.2929 12.2929C21.6834 11.9024 22.3166 11.9024 22.7071 12.2929C23.0976 12.6834 23.0976 13.3166 22.7071 13.7071L20.9142 15.5L22.7071 17.2929C23.0976 17.6834 23.0976 18.3166 22.7071 18.7071C22.3166 19.0976 21.6834 19.0976 21.2929 18.7071L19.5 16.9142L17.7071 18.7071C17.3166 19.0976 16.6834 19.0976 16.2929 18.7071C15.9024 18.3166 15.9024 17.6834 16.2929 17.2929L18.0858 15.5L16.2929 13.7071C15.9024 13.3166 15.9024 12.6834 16.2929 12.2929Z" fill="black"/>
</svg>
